<svg width="2877" height="125" viewBox="0 0 2877 125" fill="none" xmlns="http://www.w3.org/2000/svg">
<path d="M301.368 68.2986C301.368 97.0181 325.18 118.012 355.443 118.012C385.708 118.012 409.564 97.0181 409.564 68.2986V2.31752H380.255V64.8905C380.255 80.3861 369.531 90.8378 355.353 90.8378C341.175 90.8378 330.451 80.4315 330.451 64.8905V2.31752H301.141L301.323 68.2986H301.368ZM487.815 28.719H522.76V115.876H552.069V28.719H587.013V2.27208H487.815V28.719ZM468.866 2.27208H439.556V115.876H468.866V2.27208ZM182.993 28.719H217.938V115.876H247.247V28.719H282.192V2.27208H182.993V28.719ZM29.3098 2.27208H0V115.876H29.3098V2.27208ZM167.588 49.7131C167.588 20.9939 143.732 0 113.467 0C83.2034 0 59.3921 20.9939 59.3921 49.7131V115.876H88.7018V53.2575C88.7018 37.7619 99.4258 27.3104 113.603 27.3104C127.782 27.3104 138.505 37.7164 138.505 53.2575V115.83H167.816L167.634 49.6676L167.588 49.7131Z" fill="white"/>
<path d="M760.955 115.822C785.284 115.822 805.006 96.0987 805.006 71.77C805.006 47.441 785.284 27.7185 760.955 27.7185C736.626 27.7185 716.904 47.441 716.904 71.77C716.904 96.0987 736.626 115.822 760.955 115.822Z" fill="#D52B1E"/>
<path d="M751.185 87.8341C746.039 84.1835 741.206 80.2894 736.548 76.1172C734.844 79.7679 733.384 83.6619 731.923 87.5907C739.259 93.9183 749.238 101.011 756.087 105.149C764.849 82.4798 778.548 67.5642 791.69 57.099C789.986 53.4483 787.796 50.2496 784.841 47.6072C770.933 58.3158 759.46 71.9798 751.185 87.8341Z" fill="white"/>
<path d="M815.819 73.6816V65.7545H822.771V54.2461H832.543V65.7545H842.487V73.6816H832.543V92.1437C832.543 95.7246 833.379 98.2626 837.755 98.2626C839.076 98.2626 840.85 97.9845 841.966 97.4284L842.315 105.216C840.576 105.877 837.898 106.294 835.707 106.294C825.174 106.294 822.771 99.8274 822.771 92.2478V73.7163H815.819V73.6816Z" fill="white"/>
<path d="M884.172 105.459H874.749V99.0618H874.612C872.872 103.06 868.147 106.572 862.271 106.572C851.944 106.572 847.596 98.6447 847.596 90.5087V65.6494H857.505V87.6925C857.505 92.3861 858.587 98.2968 864.949 98.2968C871.311 98.2968 874.228 92.8381 874.228 87.5535V65.7189H884.172V105.459Z" fill="white"/>
<path d="M903.71 65.72V72.326H903.854C906.011 67.7713 910.25 64.5378 915.427 64.5378C916.194 64.5378 917.167 64.6074 917.831 64.816V73.9253C916.509 73.5776 915.674 73.5081 914.735 73.5081C905.799 73.5081 904.059 81.2962 904.059 84.182V105.46H894.115V65.72H903.676H903.71Z" fill="white"/>
<path d="M932.781 42.877V70.7611H933.055C935.109 68.1883 939.109 64.5724 946.409 64.5724C957.743 64.5724 965.707 73.6817 965.707 85.4334C965.707 97.1847 958.263 106.642 946.162 106.642C940.602 106.642 935.212 104.069 932.534 99.5494H932.397V105.529H922.974V42.877H932.815H932.781ZM944.149 72.6734C936.849 72.6734 932.466 79.3837 932.466 85.5724C932.466 91.7609 936.883 98.3325 944.149 98.3325C951.867 98.3325 955.586 91.6568 955.586 85.4334C955.586 79.2098 951.867 72.6734 944.149 72.6734Z" fill="white"/>
<path d="M992.826 64.5732C1004.82 64.5732 1014.45 72.9176 1014.45 85.4342C1014.45 97.9511 1004.82 106.643 992.826 106.643C980.828 106.643 971.199 97.9511 971.199 85.4342C971.199 72.9176 980.794 64.5732 992.826 64.5732ZM992.826 98.3332C1000.68 98.3332 1004.33 91.6575 1004.33 85.4342C1004.33 79.2106 1000.68 72.6742 992.826 72.6742C984.964 72.6742 981.314 79.2106 981.314 85.4342C981.314 91.6575 984.964 98.3332 992.826 98.3332Z" fill="white"/>
<path d="M1016.78 73.6816V65.7545H1023.73V54.2461H1033.5V65.7545H1043.45V73.6816H1033.5V92.1437C1033.5 95.7246 1034.34 98.2626 1038.72 98.2626C1040.04 98.2626 1041.81 97.9845 1042.93 97.4284L1043.27 105.216C1041.54 105.877 1038.86 106.294 1036.67 106.294C1026.14 106.294 1023.73 99.8274 1023.73 92.2478V73.7163H1016.78V73.6816Z" fill="white"/>
<path d="M1074.46 100.384H1074.18C1072.2 103.896 1067.51 106.434 1061.84 106.434C1055.44 106.434 1046.96 103.374 1046.96 94.091C1046.96 82.2349 1061.84 80.6008 1074.29 80.6008V79.6273C1074.29 74.725 1070.15 72.326 1065.18 72.326C1060.97 72.326 1056.9 74.3077 1054.36 76.8806L1049.22 70.8309C1053.71 66.6935 1059.96 64.5378 1066.01 64.5378C1080.26 64.5378 1083.71 73.2995 1083.71 81.2614V105.425H1074.42V100.384H1074.46ZM1074.32 87.3458H1072.09C1065.8 87.3458 1056.94 88.1107 1056.94 93.952C1056.94 97.7418 1060.52 98.9238 1063.89 98.9238C1070.7 98.9238 1074.35 95.0641 1074.35 88.7366V87.3458H1074.32Z" fill="white"/>
<path d="M1104.4 84.356L1090.07 65.7549H1101.99L1110.62 78.0976L1119.48 65.7549H1130.93L1116.67 84.356L1132.91 105.46H1120.84L1110.51 90.9967L1100.05 105.46H1088.3L1104.43 84.356H1104.4Z" fill="white"/>
<path d="M1831.47 115.021C1855.8 115.021 1875.52 95.2993 1875.52 70.9701C1875.52 46.6412 1855.8 26.9187 1831.47 26.9187C1807.14 26.9187 1787.42 46.6412 1787.42 70.9701C1787.42 95.2993 1807.14 115.021 1831.47 115.021Z" fill="#2CA01C"/>
<path d="M1799.69 70.9705C1799.69 80.2884 1807.27 87.7288 1816.76 87.7288H1819.19V81.5053H1816.76C1810.92 81.5053 1806.05 76.742 1806.05 70.9705C1806.05 65.199 1810.92 60.4357 1816.76 60.4357H1822.6V93.0135C1822.6 96.3862 1825.52 99.2372 1828.97 99.2372V54.1774H1816.76C1807.27 54.1774 1799.69 61.6178 1799.69 70.9357V70.9705ZM1846.07 54.2122H1843.64V60.4357H1846.07C1851.91 60.4357 1856.78 65.199 1856.78 70.9705C1856.78 76.742 1851.91 81.5053 1846.07 81.5053H1840.23V48.9274C1840.23 45.5548 1837.31 42.7039 1833.87 42.7039V87.7288H1846.07C1855.56 87.7288 1863.15 80.2884 1863.15 70.9705C1863.15 61.6525 1855.56 54.2122 1846.07 54.2122Z" fill="white"/>
<path d="M1929.37 124.131H1919.47V99.4449H1919.33C1916.75 103.374 1911.71 105.773 1906.19 105.773C1894.09 105.773 1886.65 96.3509 1886.65 84.9468C1886.65 73.5428 1894.61 64.4683 1905.98 64.4683C1913.28 64.4683 1917.73 67.9798 1919.75 71.0743H1919.99V65.6156H1929.52V124.166H1929.45L1929.37 124.131ZM1908.1 97.6028C1915.4 97.6028 1919.78 91.1703 1919.78 85.0859C1919.78 79.0014 1915.4 72.3954 1908.1 72.3954C1900.38 72.3954 1896.66 78.7928 1896.66 84.912C1896.66 91.0312 1900.38 97.6028 1908.1 97.6028Z" fill="white"/>
<path d="M1975.76 104.626H1966.33V98.3679H1966.2C1964.46 102.297 1959.73 105.739 1953.86 105.739C1943.53 105.739 1939.18 97.9501 1939.18 89.9537V65.5464H1949.09V87.1722C1949.09 91.7963 1950.17 97.568 1956.53 97.568C1962.9 97.568 1965.81 92.1791 1965.81 86.9984V65.5464H1975.79V104.557L1975.76 104.626Z" fill="white"/>
<path d="M1985.87 65.616H1995.86V104.626H1985.87V65.616Z" fill="white"/>
<path d="M2032.89 76.4292C2031.32 74.2388 2027.91 72.6394 2024.67 72.6394C2017.37 72.6394 2013.72 79.0368 2013.72 85.1561C2013.72 91.2753 2017.44 97.6723 2024.99 97.6723C2028.09 97.6723 2031.45 96.4554 2033.37 94.1613L2039.56 100.35C2036.26 103.861 2030.76 105.809 2024.89 105.809C2013.14 105.809 2003.33 98.1592 2003.33 85.1908C2003.33 72.2222 2012.96 64.5732 2024.61 64.5732C2030.41 64.5732 2036.47 66.8332 2039.59 70.6577L2032.78 76.4987L2032.89 76.4292Z" fill="white"/>
<path d="M2044.67 43.1892H2054.62V82.0602H2054.85L2069.95 65.6495H2082.71L2065.5 83.3118L2083.82 104.694H2070.67L2054.92 84.7026H2054.68V104.694H2044.71V43.1892H2044.64H2044.67Z" fill="white"/>
<path d="M2098.39 43.1892V70.5866H2098.66C2100.72 68.0485 2104.72 64.5022 2112.02 64.5022C2123.35 64.5022 2131.32 73.4376 2131.32 84.9807C2131.32 96.5238 2123.87 105.807 2111.77 105.807C2106.21 105.807 2100.82 103.269 2098.11 98.8186H2097.97V104.659H2088.55V43.1892H2098.39ZM2109.76 72.4293C2102.46 72.4293 2098.07 79.0353 2098.07 85.1198C2098.07 91.2042 2102.46 97.6366 2109.76 97.6366C2117.48 97.6366 2121.19 91.0651 2121.19 84.9459C2121.19 78.8267 2117.48 72.4293 2109.76 72.4293Z" fill="white"/>
<path d="M2158.47 64.5037C2170.49 64.5037 2180.09 72.709 2180.09 84.9822C2180.09 97.2553 2170.46 105.808 2158.47 105.808C2146.47 105.808 2136.84 97.2553 2136.84 84.9822C2136.84 72.709 2146.47 64.5037 2158.47 64.5037ZM2158.47 97.6724C2166.32 97.6724 2169.97 91.1014 2169.97 84.9822C2169.97 78.863 2166.32 72.4656 2158.47 72.4656C2150.61 72.4656 2146.96 78.863 2146.96 84.9822C2146.96 91.1014 2150.61 97.6724 2158.47 97.6724Z" fill="white"/>
<path d="M2207.1 64.5037C2219.1 64.5037 2228.73 72.709 2228.73 84.9822C2228.73 97.2553 2219.1 105.808 2207.1 105.808C2195.11 105.808 2185.48 97.2553 2185.48 84.9822C2185.48 72.709 2195.11 64.5037 2207.1 64.5037ZM2207.1 97.6724C2214.97 97.6724 2218.62 91.1014 2218.62 84.9822C2218.62 78.863 2214.97 72.4656 2207.1 72.4656C2199.25 72.4656 2195.6 78.863 2195.6 84.9822C2195.6 91.1014 2199.25 97.6724 2207.1 97.6724Z" fill="white"/>
<path d="M2236.55 43.1892H2246.5V82.0602H2246.78L2261.87 65.6495H2274.66L2257.45 83.3118L2275.77 104.694H2262.63L2246.88 84.7026H2246.61V104.694H2236.63V43.1892H2236.55Z" fill="white"/>
<path d="M2302.82 76.012C2301.08 73.752 2297.78 71.805 2294.13 71.805C2290.97 71.805 2287.74 72.9176 2287.74 76.012C2287.74 79.1063 2290.83 79.8017 2296.36 81.1229C2302.27 82.5137 2309.22 85.1213 2309.22 92.7704C2309.22 102.297 2301.36 105.774 2292.64 105.774C2286.52 105.774 2280.12 103.514 2276.33 99.3413L2282.87 93.3265C2285.02 96.0733 2288.74 98.1942 2293.06 98.1942C2295.94 98.1942 2299.45 97.0465 2299.45 93.5696C2299.45 90.3365 2296.36 89.363 2290.34 87.9722C2284.43 86.5816 2278.59 84.2521 2278.59 76.9159C2278.59 68.2239 2286.55 64.5037 2294.41 64.5037C2300.11 64.5037 2306.09 66.4507 2309.33 70.4491L2302.86 76.0467V75.9772L2302.82 76.012Z" fill="white"/>
<path d="M1263.71 115.822C1288.03 115.822 1307.76 96.0987 1307.76 71.77C1307.76 47.441 1288.03 27.7185 1263.71 27.7185C1239.38 27.7185 1219.65 47.441 1219.65 71.77C1219.65 96.0987 1239.38 115.822 1263.71 115.822Z" fill="#008600"/>
<path d="M1241.48 76.1851C1241.48 68.6056 1245.13 64.7116 1251.01 64.7116C1255.39 64.7116 1258.11 66.4152 1259.08 66.902C1259.81 66.1718 1260.3 64.955 1260.3 63.738C1260.3 61.5476 1257.87 59.3572 1250.77 59.3572C1242.46 59.3572 1235.4 65.1984 1235.4 76.1851C1235.4 87.1719 1241.77 93.0126 1250.04 93.0126C1255.15 93.0126 1259.08 91.3093 1260.3 90.8226V84.7381C1259.08 85.7116 1254.94 87.6586 1251.01 87.6586C1245.66 87.6586 1241.48 83.7646 1241.48 76.1851ZM1281.99 75.9417C1285.64 71.5609 1289.09 66.4152 1291.52 59.844L1286.16 57.897C1282.76 67.1801 1277.61 73.5079 1271.53 78.6537V46.6321H1265.69V92.2826H1271.53V85.4335C1273.72 83.7299 1275.66 82.0262 1277.89 80.0791L1283.25 89.3623C1284.46 91.5526 1286.41 92.7695 1289.09 92.7695C1290.55 92.7695 1291.52 92.2826 1291.76 92.0395L1281.99 75.9417Z" fill="white"/>
<path d="M1560.73 64.9542C1551.69 64.9542 1548.28 67.388 1548.28 70.0652C1548.28 72.2556 1549.5 73.4724 1549.74 73.7158C1550.96 72.9856 1554.37 71.0386 1559.76 71.0386C1566.6 71.0386 1569.04 74.2026 1569.04 77.888V78.8615C1553.18 80.5652 1545.12 83.4857 1545.12 93.012C1545.12 99.3747 1549.98 104.242 1556.84 104.242C1563.69 104.242 1567.58 100.592 1569.28 99.1315V103.512H1576.13V77.6446C1576.13 69.335 1570.05 64.9542 1560.76 64.9542H1560.73ZM1569.04 93.012C1565.88 96.1758 1562.71 97.8797 1558.54 97.8797C1554.65 97.8797 1552.46 95.2027 1552.46 92.5257C1552.46 88.6314 1555.62 85.4327 1569.04 83.9725V93.012ZM1684.47 64.9542C1675.43 64.9542 1672.03 67.388 1672.03 70.0652C1672.03 72.2556 1673.24 73.4724 1673.48 73.7158C1674.7 72.9856 1678.11 71.0386 1683.5 71.0386C1690.34 71.0386 1692.78 74.2026 1692.78 77.888V78.8615C1676.92 80.5652 1668.86 83.4857 1668.86 93.012C1668.86 99.3747 1673.72 104.242 1680.58 104.242C1687.43 104.242 1691.32 100.592 1693.02 99.1315V103.512H1699.87V77.6446C1699.87 69.335 1693.79 64.9542 1684.5 64.9542H1684.47ZM1692.78 93.012C1689.62 96.1758 1686.41 97.8797 1682.28 97.8797C1678.39 97.8797 1676.2 95.2027 1676.2 92.5257C1676.2 88.6314 1679.36 85.4327 1692.78 83.9725V93.012ZM1462.37 58.1049C1459.94 58.1049 1457.99 56.1579 1457.99 53.7241C1457.99 51.2903 1459.94 49.3433 1462.37 49.3433C1464.8 49.3433 1466.75 51.2903 1466.75 53.7241C1466.75 56.1579 1464.8 58.1049 1462.37 58.1049ZM1458.72 103.512V65.6844H1465.81V103.512H1458.72ZM1388.17 87.6579C1398.67 87.6579 1412.58 85.9543 1412.58 74.9675C1412.58 69.3698 1407.96 64.9542 1400.14 64.9542C1386.95 64.9542 1380.84 74.2374 1380.84 85.2241C1380.84 96.2108 1387.69 104.277 1399.89 104.277C1406.74 104.277 1411.85 102.33 1411.85 98.6796C1411.85 96.9757 1410.64 95.5157 1410.39 95.2719C1409.66 95.7588 1406.01 98.1926 1400.38 98.1926C1392.31 97.9495 1388.91 92.8387 1388.17 87.6927V87.6579ZM1388.17 82.0602C1388.42 76.4625 1392.07 70.83 1399.89 70.83C1403.3 70.83 1405.49 72.777 1405.49 75.2108C1405.49 80.8085 1395.47 82.0602 1388.17 82.0602ZM1450.16 102.33C1448.7 102.573 1444.08 104.277 1437.47 104.277C1422.84 104.277 1417.2 96.2108 1417.2 85.2241C1417.2 71.3168 1425.03 64.7108 1433.79 64.7108C1438.66 64.7108 1442.1 66.1711 1442.83 66.6578V49.83H1449.92L1450.16 102.295V102.33ZM1443.08 73.2986C1442.1 72.8118 1439.18 71.1082 1435.25 71.1082C1428.68 71.1082 1424.26 75.489 1424.26 85.0155C1424.26 93.3249 1428.4 97.9495 1437.44 97.9495C1439.63 97.9495 1441.34 97.7057 1443.08 97.2188V73.2986ZM1331.54 84.5287C1331.54 75.7324 1336.16 71.1082 1343.01 71.1082C1348.36 71.1082 1351.81 73.0552 1352.78 73.7853C1353.75 73.0552 1354.24 71.5949 1354.24 70.1347C1354.24 67.7009 1351.32 65.0238 1342.52 65.0238C1332.26 65.0238 1323.96 71.8731 1323.96 84.8069C1323.96 97.7407 1331.54 104.346 1341.76 104.346C1347.84 104.346 1352.75 102.4 1354.21 101.669V94.5768C1352.75 95.5506 1347.6 97.9838 1342.98 97.9838C1336.37 97.9838 1331.5 93.603 1331.5 84.5635L1331.54 84.5287ZM1530.93 84.2853C1535.55 79.1745 1539.48 73.0552 1542.41 65.4758L1535.83 63.042C1531.7 74.0287 1525.58 81.3301 1518.04 87.4493V50.0734H1510.94V103.512H1518.04V95.6896C1520.71 93.7427 1523.14 91.795 1525.86 89.3267L1532.18 100.314C1533.89 102.991 1535.83 104.451 1539.28 104.451C1540.98 104.451 1542.2 103.964 1542.44 103.721L1530.97 84.1811L1530.93 84.2853ZM1367.42 70.6214C1367.42 66.9708 1365.22 65.0238 1362.55 65.0238C1361.82 65.0238 1361.09 65.0238 1360.6 65.2671V103.582H1367.7V81.3649C1369.64 76.7407 1374.55 72.3251 1380.63 72.3251V65.2324C1373.78 65.2324 1370.13 68.3962 1367.45 73.2986V70.6214H1367.42ZM1591.71 70.6214C1591.71 66.9708 1589.52 65.0238 1586.84 65.0238C1586.11 65.0238 1585.38 65.0238 1584.9 65.2671V103.582H1591.98V81.3649C1593.93 76.7407 1598.84 72.3251 1604.92 72.3251V65.2324C1598.07 65.2324 1594.42 68.3962 1591.74 73.2986V70.6214H1591.71ZM1616.36 70.6214C1616.36 66.7274 1614.41 65.0238 1611.49 65.0238C1610.76 65.0238 1610.03 65.0238 1609.54 65.2671V103.582H1616.64V77.4708C1618.83 74.5503 1623 71.3863 1626.65 71.3863C1630.79 71.3863 1632.74 74.0635 1632.74 77.9923V103.616H1639.82V77.5055C1642.26 74.3417 1646.19 71.4211 1649.84 71.4211C1653.98 71.4211 1655.93 74.0983 1655.93 78.0271V103.651H1663.02V77.5403C1663.02 70.4476 1659.86 65.0933 1651.06 65.0933C1645.7 65.0933 1641.78 68.0138 1638.61 71.4559C1637.63 69.0221 1635.2 65.0933 1627.62 65.0933C1623 65.0933 1619.31 67.7705 1616.39 70.6909L1616.36 70.6214ZM1474.57 56.7141V93.3249C1474.57 100.661 1478.95 104.312 1485.8 104.312C1488.97 104.312 1491.89 103.582 1492.38 103.338V97.2538C1491.89 97.4976 1489.94 97.9838 1487.27 97.9838C1483.37 97.9838 1481.67 95.5506 1481.67 92.386V71.6297H1491.44V65.7886H1481.67V61.8946C1481.67 58.2439 1479.47 56.2969 1476.56 56.2969C1475.82 56.2969 1475.1 56.5403 1474.6 56.7836L1474.57 56.7141Z" fill="white"/>
<path d="M2561.85 79.94V105.008H2551.87V82.7563C2551.87 77.993 2550.79 72.0477 2544.39 72.0477C2538 72.0477 2535.6 77.9235 2535.6 83.104V105.008H2525.66V80.7745C2525.66 75.8374 2523.32 72.0825 2518.25 72.0825C2512.27 72.0825 2509.52 77.6106 2509.52 82.9301V104.973H2499.58V64.8854H2509.04V71.3175H2509.17C2510.91 67.4235 2515.15 63.738 2521.55 63.738C2527.95 63.738 2531.77 66.8324 2534.03 71.3175C2536.71 66.4847 2541.16 63.738 2547.14 63.738C2557.5 63.738 2561.85 71.7348 2561.85 79.94Z" fill="white"/>
<path d="M2596.51 99.8625H2596.23C2594.25 103.374 2589.52 105.946 2583.85 105.946C2577.46 105.946 2568.9 102.852 2568.9 93.4998C2568.9 81.5394 2583.85 79.9052 2596.3 79.9052V78.897C2596.3 73.9599 2592.13 71.5261 2587.16 71.5261C2582.91 71.5261 2578.85 73.5078 2576.31 76.1155L2571.16 70.0311C2575.65 65.8589 2581.94 63.6685 2588.03 63.6685C2602.32 63.6685 2605.79 72.5344 2605.79 80.531V104.903H2596.51V99.7926H2596.55L2596.51 99.8625ZM2596.37 86.7198H2594.11C2587.78 86.7198 2578.92 87.4847 2578.92 93.395C2578.92 97.2197 2582.5 98.4017 2585.91 98.4017C2592.72 98.4017 2596.37 94.5078 2596.37 88.1453V86.7198Z" fill="white"/>
<path d="M2615.84 64.8855H2625.78V104.973H2615.84V64.8855Z" fill="white"/>
<path d="M2621.02 58.3837C2624.36 58.3837 2627.11 55.637 2627.11 52.2645C2627.11 48.8919 2624.39 46.1453 2621.02 46.1453C2617.65 46.1453 2614.94 48.8919 2614.94 52.2645C2614.94 55.637 2617.65 58.3837 2621.02 58.3837Z" fill="white"/>
<path d="M2746.47 58.5925C2749.81 58.5925 2752.55 55.8458 2752.55 52.4732C2752.55 49.1008 2749.84 46.354 2746.47 46.354C2743.09 46.354 2740.38 49.1008 2740.38 52.4732C2740.38 55.8458 2743.09 58.5925 2746.47 58.5925Z" fill="white"/>
<path d="M2635.76 41.6257H2645.74V104.765H2635.76V41.6257Z" fill="white"/>
<path d="M2683.22 75.9765C2681.66 73.7165 2678.21 72.0825 2674.98 72.0825C2667.68 72.0825 2664 78.6884 2664 84.9467C2664 91.205 2667.72 97.8107 2675.26 97.8107C2678.36 97.8107 2681.73 96.5596 2683.64 94.1949L2689.86 100.558C2686.56 104.173 2681.07 106.155 2675.16 106.155C2663.37 106.155 2653.53 98.2977 2653.53 84.9467C2653.53 71.5957 2663.16 63.738 2674.88 63.738C2680.72 63.738 2686.77 66.0675 2689.9 69.9964L2683.08 76.0112L2683.19 75.9417L2683.22 75.9765Z" fill="white"/>
<path d="M2731.73 105.009H2721.75V82.9658C2721.75 78.2026 2720.74 72.3615 2714.34 72.3615C2707.94 72.3615 2704.96 77.8201 2704.96 83.1397V105.043H2695.01V41.835H2704.96V70.484H2705.09C2706.65 67.1463 2711.07 63.7042 2716.98 63.7042C2727.34 63.7042 2731.69 71.7009 2731.69 79.9062V105.009H2731.73Z" fill="white"/>
<path d="M2741.49 64.8855H2751.44V104.973H2741.49V64.8855Z" fill="white"/>
<path d="M2823.83 79.94V105.008H2813.85V82.7563C2813.85 77.993 2812.77 72.0477 2806.37 72.0477C2799.98 72.0477 2797.58 77.9235 2797.58 83.104V105.008H2787.63V80.7745C2787.63 75.8374 2785.3 72.0825 2780.23 72.0825C2774.25 72.0825 2771.5 77.6106 2771.5 82.9301V104.973H2761.56V64.8854H2771.01V71.3175H2771.15C2772.89 67.4235 2777.13 63.738 2783.53 63.738C2789.93 63.738 2793.75 66.8324 2796.01 71.3175C2798.69 66.4847 2803.17 63.738 2809.12 63.738C2819.48 63.738 2823.83 71.7348 2823.83 79.94Z" fill="white"/>
<path d="M2843.33 64.886V70.4837H2843.61C2845.59 67.3198 2850.08 63.7039 2857.41 63.7039C2868.81 63.7039 2876.78 72.9175 2876.78 84.7387C2876.78 96.56 2869.3 106.121 2857.21 106.121C2851.64 106.121 2846.56 103.618 2844.03 99.6198H2843.89V125H2833.91V64.886H2843.4H2843.33ZM2855.12 71.9092C2847.78 71.9092 2843.4 78.689 2843.4 84.9473C2843.4 91.2056 2847.82 97.8119 2855.12 97.8119C2862.87 97.8119 2866.59 91.0665 2866.59 84.7734C2866.59 78.4804 2862.87 71.9092 2855.12 71.9092Z" fill="white"/>
<path d="M2440.33 116.203C2464.66 116.203 2484.38 96.4806 2484.38 72.1517C2484.38 47.8228 2464.66 28.1003 2440.33 28.1003C2416 28.1003 2396.28 47.8228 2396.28 72.1517C2396.28 96.4806 2416 116.203 2440.33 116.203Z" fill="#FFE01B"/>
<path d="M2455.06 69.3925C2455.52 69.337 2455.95 69.337 2456.35 69.3925C2456.58 68.864 2456.62 67.9501 2456.41 66.9575C2456.1 65.4801 2455.68 64.5866 2454.83 64.7268C2453.96 64.8669 2453.93 65.9356 2454.24 67.413C2454.41 68.2421 2454.72 68.9546 2455.06 69.3925Z" fill="black"/>
<path d="M2447.66 70.5606C2448.28 70.8322 2448.66 71.0102 2448.81 70.8555C2448.9 70.7562 2448.87 70.5723 2448.72 70.33C2448.42 69.8336 2447.79 69.3285 2447.13 69.0453C2445.77 68.4613 2444.14 68.654 2442.9 69.5533C2442.48 69.857 2442.09 70.2745 2442.15 70.5285C2442.16 70.6103 2442.22 70.6716 2442.38 70.692C2442.72 70.73 2443.9 70.1285 2445.27 70.0468C2446.24 69.9883 2447.04 70.2891 2447.66 70.5606H2447.66Z" fill="black"/>
<path d="M2446.42 71.2672C2445.61 71.3927 2445.17 71.6584 2444.88 71.9066C2444.64 72.1197 2444.49 72.3533 2444.49 72.5197C2444.49 72.5985 2444.53 72.6423 2444.55 72.6657C2444.59 72.6978 2444.63 72.7154 2444.68 72.7154C2444.87 72.7154 2445.27 72.5518 2445.27 72.5518C2446.39 72.1518 2447.13 72.1985 2447.86 72.2832C2448.26 72.3299 2448.46 72.3533 2448.54 72.216C2448.57 72.1752 2448.6 72.0905 2448.52 71.9591C2448.33 71.6526 2447.52 71.1387 2446.41 71.2701L2446.42 71.2672Z" fill="black"/>
<path d="M2452.56 73.8686C2453.11 74.1373 2453.71 74.0321 2453.91 73.6321C2454.1 73.2351 2453.82 72.6949 2453.27 72.4263C2452.72 72.1576 2452.12 72.2628 2451.93 72.6628C2451.73 73.0599 2452.02 73.6 2452.56 73.8686Z" fill="black"/>
<path d="M2456.07 70.8029C2455.63 70.7941 2455.26 71.2817 2455.25 71.889C2455.24 72.4963 2455.59 72.9956 2456.04 73.0043C2456.48 73.0131 2456.85 72.5255 2456.86 71.9182C2456.87 71.3109 2456.52 70.8116 2456.07 70.8029Z" fill="black"/>
<path d="M2426.29 81.7665C2426.18 81.6294 2425.99 81.6702 2425.82 81.7111C2425.7 81.7403 2425.56 81.7724 2425.41 81.7695C2425.08 81.7636 2424.81 81.6235 2424.65 81.387C2424.45 81.0775 2424.46 80.6133 2424.69 80.0848C2424.71 80.0148 2424.75 79.933 2424.79 79.8483C2425.15 79.0512 2425.74 77.714 2425.07 76.4439C2424.57 75.4862 2423.75 74.8906 2422.76 74.7651C2421.82 74.6453 2420.84 74.9958 2420.22 75.6819C2419.24 76.7651 2419.08 78.2366 2419.28 78.7563C2419.34 78.9461 2419.45 78.9987 2419.53 79.0103C2419.69 79.0337 2419.95 78.9111 2420.1 78.4965C2420.11 78.4673 2420.13 78.4206 2420.15 78.3621C2420.21 78.1432 2420.34 77.7315 2420.55 77.4045C2420.8 77.0074 2421.2 76.7359 2421.66 76.6366C2422.13 76.5344 2422.62 76.625 2423.02 76.8907C2423.71 77.3402 2423.97 78.1811 2423.68 78.987C2423.52 79.4016 2423.28 80.1958 2423.33 80.8498C2423.44 82.1724 2424.25 82.7008 2424.99 82.7592C2425.69 82.7855 2426.19 82.3884 2426.32 82.0965C2426.39 81.9242 2426.33 81.8191 2426.29 81.7753V81.7665Z" fill="black"/>
<path d="M2467.26 79.352C2467.23 79.2557 2467.06 78.6133 2466.82 77.8366C2466.58 77.06 2466.32 76.514 2466.32 76.514C2467.3 75.0629 2467.31 73.7637 2467.18 73.0279C2467.04 72.1169 2466.67 71.3374 2465.9 70.5344C2465.14 69.7316 2463.57 68.9082 2461.37 68.2921C2461.12 68.2221 2460.29 67.9943 2460.22 67.971C2460.21 67.9243 2460.16 65.2497 2460.1 64.1023C2460.07 63.2731 2460 61.9768 2459.6 60.7009C2459.12 58.9753 2458.28 57.4629 2457.25 56.4965C2460.12 53.5184 2461.91 50.2366 2461.91 47.4191C2461.9 42.0059 2455.25 40.368 2447.06 43.7607C2447.05 43.7636 2445.33 44.4906 2445.32 44.4965C2445.31 44.4877 2442.18 41.4162 2442.14 41.3753C2432.79 33.2322 2403.58 65.6994 2412.92 73.5855L2414.96 75.314C2414.43 76.6863 2414.22 78.2571 2414.39 79.9476C2414.61 82.117 2415.73 84.1987 2417.55 85.8045C2419.27 87.3316 2421.54 88.295 2423.73 88.295C2427.36 96.6686 2435.67 101.807 2445.4 102.096C2455.85 102.406 2464.62 97.5068 2468.29 88.7038C2468.53 88.0849 2469.55 85.3024 2469.55 82.844C2469.55 80.3855 2468.15 79.352 2467.26 79.352ZM2424.53 85.9447C2424.21 86.0002 2423.89 86.0206 2423.56 86.0118C2420.41 85.9272 2417 83.0863 2416.67 79.7199C2416.29 75.9972 2418.19 73.133 2421.56 72.4527C2421.97 72.3709 2422.45 72.3242 2422.97 72.3505C2424.86 72.4527 2427.64 73.9038 2428.27 78.0118C2428.84 81.6527 2427.95 85.3578 2424.54 85.9418L2424.53 85.9447ZM2421.01 70.2279C2418.91 70.6366 2417.06 71.825 2415.93 73.4658C2415.26 72.9024 2414 71.8133 2413.78 71.387C2411.98 67.9622 2415.75 61.3023 2418.38 57.5417C2424.9 48.2425 2435.1 41.2089 2439.82 42.4848C2440.59 42.7008 2443.13 45.6497 2443.13 45.6497C2443.13 45.6497 2438.41 48.2688 2434.03 51.9184C2428.13 56.4585 2423.68 63.06 2421.01 70.222V70.2279ZM2454.12 84.555C2454.18 84.5257 2454.24 84.4469 2454.22 84.371C2454.22 84.2747 2454.13 84.2045 2454.04 84.2162C2454.04 84.2162 2449.09 84.9491 2444.42 83.2381C2444.94 81.5856 2446.29 82.1812 2448.33 82.3476C2452.02 82.5666 2455.31 82.0294 2457.76 81.3286C2459.87 80.7213 2462.65 79.5242 2464.8 77.825C2465.53 79.4221 2465.79 81.1827 2465.79 81.1827C2465.79 81.1827 2466.35 81.0804 2466.82 81.3724C2467.26 81.6469 2467.59 82.2162 2467.37 83.6848C2466.92 86.4323 2465.75 88.6629 2463.78 90.7126C2462.59 91.9974 2461.14 93.1184 2459.48 93.93C2458.6 94.3943 2457.66 94.7942 2456.67 95.1181C2449.27 97.5362 2441.7 94.8791 2439.25 89.1739C2439.05 88.7447 2438.9 88.295 2438.76 87.825C2437.72 84.0644 2438.6 79.5534 2441.37 76.7155C2441.53 76.5344 2441.71 76.3213 2441.71 76.0527C2441.71 75.8279 2441.57 75.5914 2441.44 75.425C2440.48 74.0235 2437.13 71.6352 2437.81 67.0162C2438.29 63.6965 2441.19 61.3578 2443.9 61.4979C2444.13 61.5097 2444.35 61.5242 2444.59 61.5359C2445.76 61.6059 2446.78 61.7549 2447.74 61.7958C2449.36 61.8658 2450.81 61.6294 2452.54 60.1958C2453.12 59.7111 2453.59 59.2936 2454.37 59.1593C2454.46 59.1446 2454.66 59.0717 2455.07 59.0921C2455.49 59.1155 2455.89 59.2293 2456.25 59.4688C2457.63 60.3855 2457.82 62.6104 2457.9 64.2366C2457.94 65.1651 2458.05 67.4133 2458.09 68.0556C2458.18 69.5301 2458.56 69.7374 2459.35 69.9972C2459.79 70.1432 2460.2 70.2513 2460.8 70.4206C2462.63 70.9345 2463.71 71.4542 2464.39 72.1228C2464.8 72.5403 2464.99 72.9841 2465.05 73.4075C2465.26 74.9783 2463.83 76.9199 2460.03 78.6834C2455.88 80.6104 2450.84 81.098 2447.35 80.7125C2447.09 80.6834 2446.13 80.5754 2446.13 80.5754C2443.35 80.2016 2441.76 83.7987 2443.44 86.2658C2444.51 87.8542 2447.44 88.8878 2450.38 88.8907C2457.11 88.8907 2462.28 86.0177 2464.21 83.5359C2464.27 83.4629 2464.27 83.4542 2464.36 83.3169C2464.45 83.1739 2464.38 83.095 2464.26 83.1768C2462.69 84.2513 2455.7 88.5228 2448.24 87.2382C2448.24 87.2382 2447.33 87.0892 2446.5 86.7651C2445.84 86.5082 2444.46 85.8746 2444.29 84.4615C2450.33 86.3272 2454.12 84.5636 2454.12 84.5636V84.555ZM2433.04 57.5008C2435.36 54.8264 2438.2 52.4994 2440.76 51.1943C2440.85 51.1505 2440.94 51.2439 2440.9 51.3315C2440.69 51.6994 2440.3 52.4848 2440.18 53.0804C2440.16 53.1739 2440.26 53.2439 2440.33 53.1885C2441.92 52.1052 2444.68 50.9461 2447.11 50.7972C2447.22 50.7914 2447.26 50.9257 2447.18 50.987C2446.82 51.2702 2446.42 51.6614 2446.12 52.0556C2446.07 52.1227 2446.11 52.2191 2446.2 52.2191C2447.9 52.2308 2450.31 52.8264 2451.87 53.7052C2451.97 53.7636 2451.89 53.9709 2451.78 53.9418C2449.41 53.3987 2445.54 52.987 2441.51 53.968C2437.92 54.8439 2435.18 56.1958 2433.18 57.6527C2433.08 57.7257 2432.96 57.5914 2433.04 57.498V57.5008Z" fill="black"/>
</svg>
