<svg width="2955" height="125" viewBox="0 0 2955 125" fill="none" xmlns="http://www.w3.org/2000/svg">
<path d="M297.57 67.3747C297.57 95.708 321.088 116.433 350.965 116.433C380.843 116.433 404.386 95.708 404.386 67.3747V2.27998H375.457V64.0188C375.457 79.3126 364.84 89.611 350.889 89.611C336.937 89.611 326.32 79.3638 326.32 64.0188V2.27998H297.391L297.57 67.3747V67.3747ZM481.683 28.3332H516.203V114.281H545.131V28.3332H579.651V2.22873H481.683V28.3332V28.3332ZM462.987 2.22873H434.059V114.281H462.987V2.22873ZM180.702 28.3332H215.221V114.281H244.15V28.3332H278.644V2.22873H180.702V28.3332V28.3332ZM28.9287 2.22873H0V114.281H28.9287V2.22873ZM165.468 49.0324C165.468 20.6992 141.951 0 112.047 0C82.1441 0 58.6268 20.6992 58.6268 49.0324V114.281H87.5554V52.542C87.5554 37.2482 98.1729 26.9499 112.124 26.9499C126.076 26.9499 136.693 37.197 136.693 52.542V114.281H165.622L165.442 49.0324H165.468Z" fill="#236CFF"/>
<path d="M1887.91 114.317C1912.64 114.317 1932.69 94.2677 1932.69 69.5362C1932.69 44.8047 1912.64 24.7559 1887.91 24.7559C1863.18 24.7559 1843.13 44.8047 1843.13 69.5362C1843.13 94.2677 1863.18 114.317 1887.91 114.317Z" fill="#2CA01C"/>
<path d="M1855.63 69.5369C1855.63 79.009 1863.34 86.5725 1872.99 86.5725H1875.46V80.246H1872.99C1867.05 80.246 1862.1 75.4039 1862.1 69.5369C1862.1 63.6698 1867.05 58.8278 1872.99 58.8278H1878.93V91.9447C1878.93 95.373 1881.9 98.2712 1885.39 98.2712V52.4659H1872.99C1863.34 52.4659 1855.63 60.0295 1855.63 69.5015V69.5369ZM1902.78 52.5012H1900.31V58.8278H1902.78C1908.72 58.8278 1913.67 63.6698 1913.67 69.5369C1913.67 75.4039 1908.72 80.246 1902.78 80.246H1896.85V47.1644C1896.85 43.736 1893.88 40.8379 1890.38 40.8379V86.6078H1902.78C1912.43 86.6078 1920.14 79.0443 1920.14 69.5722C1920.14 60.1001 1912.43 52.5366 1902.78 52.5366V52.5012Z" fill="white"/>
<path d="M1978.06 124.927V99.3401H1977.92C1975.26 103.407 1970.04 105.926 1964.28 105.926C1951.76 105.926 1944.02 96.1372 1944.02 84.3693C1944.02 72.6014 1952.26 63.1367 1964.03 63.1367C1971.59 63.1367 1976.19 66.7714 1978.28 69.9743H1978.53V64.3243H1988.43V124.999L1978.06 124.927ZM1966.3 97.4328C1973.85 97.4328 1978.39 90.7751 1978.39 84.4413C1978.39 78.1075 1973.85 71.3059 1966.3 71.3059C1958.31 71.3059 1954.42 77.9636 1954.42 84.2974C1954.42 90.6312 1958.27 97.4328 1966.3 97.4328Z" fill="black"/>
<path d="M2036.43 104.702H2026.64V98.2241H2026.5C2024.7 102.291 2019.8 105.889 2013.68 105.889C2002.96 105.889 1998.46 97.7923 1998.46 89.5511V64.252H2008.75V86.6721C2008.75 91.4585 2009.87 97.4684 2016.49 97.4684C2023.11 97.4684 2026.1 91.8903 2026.1 86.5282V64.288H2036.43V104.738V104.702Z" fill="black"/>
<path d="M2046.9 64.2529H2057.23V104.703H2046.9V64.2529Z" fill="black"/>
<path d="M2095.67 75.4806C2094.05 73.2134 2090.53 71.522 2087.14 71.522C2079.59 71.522 2075.81 78.1797 2075.81 84.5135C2075.81 90.8473 2079.66 97.5049 2087.47 97.5049C2090.67 97.5049 2094.16 96.2453 2096.14 93.8702L2102.55 100.276C2099.13 103.911 2093.44 105.926 2087.32 105.926C2075.16 105.926 2064.98 98.0087 2064.98 84.5494C2064.98 71.0901 2074.95 63.1729 2087.04 63.1729C2093.08 63.1729 2099.34 65.548 2102.55 69.4707L2095.49 75.5526L2095.6 75.4806H2095.67Z" fill="black"/>
<path d="M2107.87 41.0409H2118.2V81.3109H2118.45L2134.1 64.2888H2147.35L2129.5 82.5704L2148.5 104.739H2134.86L2118.56 84.0099H2118.3V104.739H2107.98V41.0049H2107.9L2107.87 41.0409Z" fill="black"/>
<path d="M2163.5 41.043V69.4371H2163.79C2165.91 66.81 2170.05 63.1393 2177.61 63.1393C2189.34 63.1393 2197.62 72.424 2197.62 84.3719C2197.62 96.3197 2189.88 105.928 2177.36 105.928C2171.6 105.928 2166.02 103.301 2163.22 98.6949H2163.07V104.777H2153.28V41.043H2163.5V41.043ZM2175.27 71.3444C2167.71 71.3444 2163.18 78.1821 2163.18 84.4799C2163.18 90.7777 2167.71 97.4713 2175.27 97.4713C2183.26 97.4713 2187.15 90.6697 2187.15 84.3359C2187.15 78.0021 2183.3 71.3444 2175.27 71.3444Z" fill="black"/>
<path d="M2225.83 63.1025C2238.29 63.1025 2248.25 71.5956 2248.25 84.3351C2248.25 97.0747 2238.29 105.892 2225.83 105.892C2213.38 105.892 2203.41 97.0387 2203.41 84.3351C2203.41 71.6316 2213.38 63.1025 2225.83 63.1025ZM2225.83 97.4705C2234 97.4705 2237.78 90.6689 2237.78 84.3351C2237.78 78.0013 2234 71.3436 2225.83 71.3436C2217.66 71.3436 2213.89 78.0013 2213.89 84.3351C2213.89 90.6689 2217.66 97.4705 2225.83 97.4705Z" fill="black"/>
<path d="M2276.23 63.1025C2288.68 63.1025 2298.65 71.5956 2298.65 84.3351C2298.65 97.0747 2288.68 105.892 2276.23 105.892C2263.78 105.892 2253.81 97.0387 2253.81 84.3351C2253.81 71.6316 2263.78 63.1025 2276.23 63.1025ZM2276.23 97.4705C2284.4 97.4705 2288.18 90.6689 2288.18 84.3351C2288.18 78.0013 2284.4 71.3436 2276.23 71.3436C2268.06 71.3436 2264.28 78.0013 2264.28 84.3351C2264.28 90.6689 2268.06 97.4705 2276.23 97.4705Z" fill="black"/>
<path d="M2306.74 41.0409H2317.06V81.3109H2317.35L2333.01 64.2888H2346.25L2328.4 82.5704L2347.4 104.739H2333.76L2317.46 84.0099H2317.17V104.739H2306.84V41.0049H2306.77L2306.74 41.0409Z" fill="black"/>
<path d="M2375.44 75.0487C2373.64 72.6736 2370.18 70.6943 2366.4 70.6943C2363.13 70.6943 2359.78 71.8458 2359.78 75.0487C2359.78 78.2516 2362.99 79.0074 2368.74 80.3389C2374.86 81.7784 2382.06 84.4775 2382.06 92.3947C2382.06 102.255 2373.89 105.89 2364.89 105.89C2358.56 105.89 2351.94 103.515 2347.98 99.2323L2354.74 93.0065C2356.98 95.8495 2360.86 98.0808 2365.29 98.0808C2368.28 98.0808 2371.91 96.8932 2371.91 93.2944C2371.91 89.9476 2368.71 88.9399 2362.45 87.5004C2356.33 86.0609 2350.28 83.6497 2350.28 76.0564C2350.28 67.0595 2358.52 63.1729 2366.69 63.1729C2372.59 63.1729 2378.78 65.1882 2382.13 69.3267L2375.44 75.1207V75.0487V75.0487Z" fill="black"/>
<path d="M2516.46 114.317C2541.19 114.317 2561.24 94.2687 2561.24 69.5372C2561.24 44.8057 2541.19 24.7568 2516.46 24.7568C2491.73 24.7568 2471.68 44.8057 2471.68 69.5372C2471.68 94.2687 2491.73 114.317 2516.46 114.317Z" fill="#FFE01B"/>
<path d="M2529.91 69.8281C2530.37 69.7717 2530.81 69.7717 2531.21 69.8281C2531.45 69.2909 2531.49 68.3621 2531.28 67.3531C2530.97 65.8515 2530.54 64.9435 2529.67 65.0859C2528.79 65.2284 2528.76 66.3145 2529.07 67.8161C2529.24 68.6589 2529.56 69.3829 2529.91 69.8281V69.8281Z" fill="black"/>
<path d="M2522.39 71.0145C2523.02 71.2905 2523.4 71.4715 2523.55 71.3142C2523.65 71.2133 2523.62 71.0263 2523.47 70.78C2523.16 70.2756 2522.52 69.7622 2521.85 69.4743C2520.46 68.8808 2518.82 69.0767 2517.55 69.9907C2517.13 70.2993 2516.73 70.7237 2516.79 70.9818C2516.81 71.0649 2516.87 71.1272 2517.02 71.148C2517.36 71.1866 2518.57 70.5753 2519.96 70.4922C2520.95 70.4328 2521.76 70.7385 2522.39 71.0145H2522.39Z" fill="black"/>
<path d="M2521.13 71.7343C2520.31 71.8619 2519.86 72.1319 2519.57 72.3842C2519.32 72.6008 2519.17 72.8382 2519.17 73.0073C2519.17 73.0875 2519.21 73.132 2519.23 73.1557C2519.27 73.1884 2519.31 73.2062 2519.37 73.2062C2519.55 73.2062 2519.96 73.04 2519.96 73.04C2521.1 72.6334 2521.85 72.6809 2522.59 72.767C2523 72.8145 2523.2 72.8382 2523.29 72.6987C2523.31 72.6572 2523.35 72.5711 2523.26 72.4376C2523.07 72.126 2522.25 71.6037 2521.12 71.7372L2521.13 71.7343Z" fill="black"/>
<path d="M2527.37 74.3808C2527.93 74.6538 2528.54 74.5469 2528.74 74.1404C2528.93 73.7368 2528.65 73.1878 2528.09 72.9148C2527.54 72.6418 2526.93 72.7486 2526.73 73.1552C2526.53 73.5588 2526.82 74.1077 2527.37 74.3808Z" fill="black"/>
<path d="M2530.94 71.2648C2530.49 71.2559 2530.11 71.7514 2530.11 72.3687C2530.09 72.9859 2530.45 73.4934 2530.9 73.5023C2531.36 73.5112 2531.73 73.0156 2531.74 72.3984C2531.75 71.7811 2531.39 71.2737 2530.94 71.2648Z" fill="black"/>
<path d="M2500.66 82.4063C2500.55 82.2669 2500.36 82.3084 2500.18 82.3499C2500.06 82.3796 2499.92 82.4123 2499.76 82.4093C2499.43 82.4034 2499.15 82.2609 2498.99 82.0205C2498.79 81.706 2498.8 81.2341 2499.03 80.697C2499.06 80.6258 2499.09 80.5427 2499.13 80.4566C2499.5 79.6465 2500.1 78.2874 2499.42 76.9965C2498.91 76.0231 2498.08 75.4177 2497.07 75.2901C2496.11 75.1685 2495.12 75.5246 2494.49 76.2219C2493.49 77.3229 2493.34 78.8186 2493.53 79.3468C2493.6 79.5397 2493.71 79.5931 2493.79 79.605C2493.96 79.6287 2494.21 79.5041 2494.37 79.0827C2494.38 79.053 2494.39 79.0055 2494.41 78.9462C2494.48 78.7236 2494.61 78.3052 2494.82 77.9728C2495.08 77.5692 2495.48 77.2932 2495.95 77.1923C2496.44 77.0885 2496.93 77.1805 2497.33 77.4505C2498.03 77.9075 2498.3 78.7622 2498 79.5812C2497.85 80.0026 2497.6 80.8098 2497.65 81.4745C2497.77 82.8188 2498.59 83.3559 2499.33 83.4153C2500.05 83.442 2500.56 83.0384 2500.69 82.7417C2500.76 82.5666 2500.7 82.4597 2500.66 82.4152L2500.66 82.4063Z" fill="black"/>
<path d="M2542.31 79.9524C2542.28 79.8544 2542.1 79.2016 2541.86 78.4122C2541.61 77.6228 2541.36 77.0679 2541.36 77.0679C2542.34 75.593 2542.36 74.2725 2542.23 73.5246C2542.09 72.5988 2541.7 71.8064 2540.93 70.9903C2540.15 70.1743 2538.56 69.3374 2536.32 68.7113C2536.07 68.64 2535.23 68.4086 2535.15 68.3848C2535.15 68.3373 2535.09 65.6191 2535.04 64.4528C2535 63.61 2534.93 62.2924 2534.52 60.9956C2534.04 59.2418 2533.19 57.7046 2532.13 56.7223C2535.05 53.6954 2536.88 50.3599 2536.87 47.4962C2536.86 41.9944 2530.1 40.3296 2521.77 43.7779C2521.76 43.7808 2520.02 44.5197 2520.01 44.5257C2520 44.5168 2516.82 41.3949 2516.77 41.3534C2507.27 33.0768 2477.58 66.0761 2487.08 74.0914L2489.15 75.8482C2488.61 77.243 2488.4 78.8395 2488.58 80.5577C2488.8 82.7626 2489.93 84.8785 2491.78 86.5107C2493.53 88.0627 2495.83 89.042 2498.07 89.042C2501.76 97.5529 2510.2 102.776 2520.09 103.07C2530.71 103.384 2539.62 98.4046 2543.35 89.4574C2543.6 88.8283 2544.64 86.0002 2544.64 83.5016C2544.64 81.0029 2543.22 79.9524 2542.31 79.9524H2542.31ZM2498.88 86.6531C2498.56 86.7095 2498.23 86.7303 2497.9 86.7214C2494.69 86.6353 2491.23 83.7479 2490.88 80.3263C2490.5 76.5426 2492.44 73.6315 2495.86 72.94C2496.27 72.8569 2496.77 72.8095 2497.3 72.8362C2499.21 72.94 2502.04 74.4149 2502.69 78.5903C2503.26 82.2908 2502.35 86.0566 2498.88 86.6501L2498.88 86.6531ZM2495.3 70.6787C2493.17 71.0942 2491.29 72.302 2490.14 73.9698C2489.45 73.397 2488.18 72.2901 2487.95 71.8569C2486.12 68.3759 2489.95 61.6069 2492.63 57.7847C2499.25 48.3331 2509.62 41.1842 2514.42 42.481C2515.2 42.7006 2517.78 45.6979 2517.78 45.6979C2517.78 45.6979 2512.98 48.3598 2508.54 52.0692C2502.54 56.6838 2498.01 63.3934 2495.3 70.6728L2495.3 70.6787ZM2528.95 85.2405C2529.02 85.2109 2529.07 85.1307 2529.06 85.0536C2529.05 84.9557 2528.96 84.8844 2528.87 84.8963C2528.87 84.8963 2523.85 85.6412 2519.1 83.9022C2519.62 82.2225 2520.99 82.8279 2523.07 82.9971C2526.81 83.2196 2530.17 82.6736 2532.65 81.9614C2534.8 81.3441 2537.62 80.1274 2539.81 78.4003C2540.55 80.0236 2540.81 81.813 2540.81 81.813C2540.81 81.813 2541.38 81.7092 2541.86 82.0059C2542.31 82.2849 2542.64 82.8635 2542.42 84.3562C2541.96 87.1487 2540.77 89.4159 2538.77 91.4991C2537.56 92.8048 2536.09 93.9444 2534.4 94.7694C2533.5 95.2412 2532.55 95.6478 2531.54 95.9772C2524.02 98.4343 2516.33 95.7338 2513.84 89.9352C2513.64 89.499 2513.48 89.042 2513.34 88.5642C2512.29 84.742 2513.18 80.1571 2515.99 77.2727C2516.16 77.0887 2516.34 76.872 2516.34 76.599C2516.34 76.3705 2516.19 76.1301 2516.07 75.961C2515.09 74.5366 2511.69 72.1091 2512.37 67.4144C2512.86 64.0403 2515.81 61.6633 2518.56 61.8058C2518.79 61.8176 2519.03 61.8325 2519.26 61.8443C2520.45 61.9156 2521.49 62.0669 2522.47 62.1084C2524.12 62.1797 2525.59 61.9393 2527.34 60.4822C2527.93 59.9896 2528.41 59.5653 2529.21 59.4287C2529.29 59.4139 2529.5 59.3397 2529.92 59.3605C2530.35 59.3842 2530.75 59.5 2531.12 59.7433C2532.52 60.6751 2532.72 62.9364 2532.79 64.5893C2532.83 65.533 2532.95 67.818 2532.99 68.4709C2533.08 69.9695 2533.47 70.1802 2534.27 70.4443C2534.72 70.5927 2535.13 70.7025 2535.75 70.8746C2537.6 71.3969 2538.7 71.9251 2539.4 72.6047C2539.81 73.0291 2540 73.4801 2540.06 73.9104C2540.28 75.507 2538.82 77.4804 2534.96 79.2728C2530.74 81.2314 2525.62 81.727 2522.08 81.3352C2521.81 81.3056 2520.84 81.1958 2520.84 81.1958C2518 80.8159 2516.39 84.4719 2518.09 86.9795C2519.19 88.5939 2522.17 89.6444 2525.15 89.6474C2531.99 89.6474 2537.25 86.7273 2539.21 84.2049C2539.26 84.1307 2539.27 84.1218 2539.36 83.9823C2539.46 83.8369 2539.38 83.7568 2539.26 83.8399C2537.66 84.9319 2530.56 89.2735 2522.97 87.9677C2522.97 87.9677 2522.05 87.8164 2521.21 87.487C2520.54 87.2258 2519.14 86.5819 2518.97 85.1456C2525.09 87.0419 2528.95 85.2494 2528.95 85.2494L2528.95 85.2405ZM2507.53 57.7432C2509.88 55.0249 2512.78 52.6597 2515.37 51.3333C2515.46 51.2887 2515.56 51.3837 2515.51 51.4727C2515.3 51.8466 2514.91 52.6449 2514.78 53.2503C2514.76 53.3453 2514.86 53.4165 2514.94 53.3601C2516.56 52.2591 2519.36 51.081 2521.83 50.9297C2521.94 50.9237 2521.99 51.0602 2521.9 51.1226C2521.53 51.4104 2521.12 51.8081 2520.82 52.2087C2520.77 52.2769 2520.82 52.3749 2520.9 52.3749C2522.63 52.3867 2525.07 52.9921 2526.66 53.8853C2526.77 53.9447 2526.69 54.1554 2526.57 54.1257C2524.17 53.5738 2520.23 53.1553 2516.14 54.1524C2512.49 55.0427 2509.7 56.4167 2507.67 57.8975C2507.57 57.9717 2507.45 57.8352 2507.53 57.7402L2507.53 57.7432Z" fill="black"/>
<path d="M2637.85 79.5928V104.855H2627.78V82.4619C2627.78 77.6683 2626.69 71.6851 2620.25 71.6851C2613.82 71.6851 2611.37 77.5984 2611.37 82.8118V104.855H2601.36V80.4325C2601.36 75.464 2599.02 71.6501 2593.91 71.6501C2587.89 71.6501 2585.12 77.2134 2585.12 82.5669V104.785H2575.12V64.3723H2584.63V70.8454H2584.77C2586.52 66.8915 2590.79 63.1826 2597.27 63.1826C2603.74 63.1826 2607.55 66.3317 2609.83 70.8454C2612.52 65.9818 2617 63.1826 2623.05 63.1826C2633.51 63.1826 2637.89 71.2652 2637.89 79.5228L2637.85 79.5928Z" fill="black"/>
<path d="M2672.78 99.6751H2672.5C2670.51 103.244 2665.75 105.833 2660.01 105.833C2653.57 105.833 2644.96 102.719 2644.96 93.272C2644.96 81.2355 2660.01 79.556 2672.57 79.556V78.5413C2672.57 73.5728 2668.37 71.1235 2663.37 71.1235C2659.1 71.1235 2655 73.1179 2652.42 75.7771L2647.24 69.6189C2651.75 65.4202 2658.12 63.2158 2664.21 63.2158C2678.62 63.2158 2682.12 72.1382 2682.12 80.2208V104.784H2672.74V99.6401H2672.78V99.6751ZM2672.64 86.414H2670.37C2664 86.414 2655.04 87.1837 2655.04 93.132C2655.04 96.9809 2658.64 98.2055 2662.07 98.2055C2668.97 98.2055 2672.64 94.2517 2672.64 87.8486V86.414V86.414Z" fill="black"/>
<path d="M2692.27 64.4062H2702.31V104.819H2692.27V64.4062Z" fill="black"/>
<path d="M2697.48 57.9004C2700.87 57.9004 2703.6 55.1361 2703.6 51.7421C2703.6 48.3481 2700.87 45.584 2697.48 45.584C2694.08 45.584 2691.35 48.3481 2691.35 51.7421C2691.35 55.1361 2694.08 57.9004 2697.48 57.9004Z" fill="black"/>
<path d="M2823.89 58.0722C2827.28 58.0722 2830.01 55.308 2830.01 51.914C2830.01 48.52 2827.28 45.7559 2823.89 45.7559C2820.49 45.7559 2817.77 48.52 2817.77 51.914C2817.77 55.308 2820.49 58.0722 2823.89 58.0722Z" fill="black"/>
<path d="M2712.34 41.2617H2722.42V104.873H2712.34V41.2617Z" fill="black"/>
<path d="M2760.18 75.6385C2758.61 73.3641 2755.15 71.6847 2751.89 71.6847C2744.51 71.6847 2740.83 78.3327 2740.83 84.6658C2740.83 90.9989 2744.61 97.647 2752.21 97.647C2755.32 97.647 2758.75 96.3873 2760.67 94.008L2766.94 100.411C2763.58 104.05 2758.05 106.044 2752.1 106.044C2740.24 106.044 2730.34 98.1368 2730.34 84.6658C2730.34 71.1948 2740.06 63.2871 2751.86 63.2871C2757.73 63.2871 2763.86 65.6314 2767.01 69.5853L2760.15 75.6385L2760.25 75.5685L2760.18 75.6385Z" fill="black"/>
<path d="M2809.06 104.978H2798.98V82.7595C2798.98 77.9659 2797.97 72.0526 2791.53 72.0526C2785.09 72.0526 2782.08 77.546 2782.08 82.8994V104.943H2772.04V41.2617H2782.08V70.1282H2782.22C2783.79 66.7692 2788.24 63.3052 2794.22 63.3052C2804.68 63.3052 2809.06 71.3878 2809.06 79.6454V104.943V104.978Z" fill="black"/>
<path d="M2818.9 64.4062H2828.9V104.819H2818.9V64.4062Z" fill="black"/>
<path d="M2901.85 79.5938V104.856H2891.77V82.4629C2891.77 77.6693 2890.69 71.6861 2884.25 71.6861C2877.81 71.6861 2875.36 77.5993 2875.36 82.8128V104.856H2865.32V80.4335C2865.32 75.465 2862.98 71.6511 2857.87 71.6511C2851.85 71.6511 2849.08 77.2144 2849.08 82.5678V104.786H2839.04V64.3732H2848.56V70.8463H2848.7C2850.45 66.8925 2854.72 63.1836 2861.19 63.1836C2867.66 63.1836 2871.48 66.3327 2873.75 70.8463C2876.45 65.9828 2880.96 63.1836 2886.98 63.1836C2897.44 63.1836 2901.81 71.2662 2901.81 79.5238L2901.85 79.5938Z" fill="black"/>
<path d="M2920.38 64.4055V70.0388H2920.66C2922.66 66.8198 2927.21 63.2158 2934.55 63.2158C2946.03 63.2158 2954.08 72.4881 2954.08 84.4196C2954.08 96.3511 2946.56 105.973 2934.34 105.973C2928.75 105.973 2923.64 103.454 2921.05 99.3952H2920.91V124.973H2910.83V64.4055H2920.38V64.4055ZM2932.24 71.4734C2924.86 71.4734 2920.45 78.2964 2920.45 84.5945C2920.45 90.8926 2924.9 97.5757 2932.24 97.5757C2940.05 97.5757 2943.79 90.7877 2943.79 84.4546C2943.79 78.1214 2940.01 71.4734 2932.24 71.4734Z" fill="black"/>
<path d="M793.12 72.4576V64.364H800.189V52.6299H810.12V64.364H820.264V72.4576H810.12V91.2605C810.12 94.9008 810.969 97.4809 815.422 97.4809C816.765 97.4809 818.568 97.1981 819.699 96.6326L820.052 104.55C818.285 105.221 815.563 105.645 813.337 105.645C802.628 105.645 800.189 99.0714 800.189 91.3311V72.4576H793.12V72.4576Z" fill="black"/>
<path d="M862.703 104.797H853.125V98.2933H852.984C851.216 102.358 846.41 105.963 840.401 105.963C829.869 105.963 825.486 97.8692 825.486 89.5988V64.3281H835.595V86.736C835.595 91.5427 836.69 97.5158 843.158 97.5158C849.626 97.5158 852.595 91.9315 852.595 86.5593V64.3281H862.738V104.761L862.703 104.797Z" fill="black"/>
<path d="M882.598 64.3267V71.042H882.739C884.93 66.412 889.242 63.125 894.544 63.125C895.321 63.125 896.311 63.1957 896.982 63.4078V72.7031C895.639 72.3497 894.791 72.279 893.837 72.279C884.754 72.279 882.986 80.196 882.986 83.1295V104.795H872.843V64.362H882.598V64.3267Z" fill="black"/>
<path d="M912.196 41.1074V69.4883H912.479C914.564 66.8729 918.629 63.1972 926.051 63.1972C937.573 63.1972 945.702 72.4925 945.702 84.4387C945.702 96.3848 938.139 105.998 925.839 105.998C920.184 105.998 914.706 103.383 911.949 98.7528H911.808V104.832H902.229V41.1074H912.232H912.196ZM923.754 71.4322C916.332 71.4322 911.878 78.2889 911.878 84.5801C911.878 90.8712 916.367 97.5865 923.754 97.5865C931.6 97.5865 935.382 90.7652 935.382 84.4387C935.382 78.1121 931.6 71.4322 923.754 71.4322Z" fill="black"/>
<path d="M973.296 63.1963C985.525 63.1963 995.315 71.7141 995.315 84.4378C995.315 97.1615 985.525 105.997 973.296 105.997C961.068 105.997 951.277 97.1261 951.277 84.4378C951.277 71.7494 961.068 63.1963 973.296 63.1963ZM973.296 97.5856C981.319 97.5856 985.03 90.7643 985.03 84.4378C985.03 78.1113 981.319 71.4314 973.296 71.4314C965.273 71.4314 961.562 78.0759 961.562 84.4378C961.562 90.7996 965.273 97.5856 973.296 97.5856Z" fill="black"/>
<path d="M997.722 72.4596V64.3659H1004.79V52.6318H1014.72V64.3659H1024.87V72.4596H1014.72V91.2624C1014.72 94.9028 1015.57 97.4829 1020.02 97.4829C1021.37 97.4829 1023.17 97.2001 1024.3 96.6346L1024.65 104.552C1022.89 105.223 1020.16 105.647 1017.94 105.647C1007.23 105.647 1004.79 99.0733 1004.79 91.3331V72.4596H997.722V72.4596Z" fill="black"/>
<path d="M1056.42 99.6349H1056.14C1054.13 103.205 1049.32 105.785 1043.56 105.785C1037.05 105.785 1028.4 102.639 1028.4 93.2024C1028.4 81.1502 1043.56 79.4891 1056.21 79.4891V78.4995C1056.21 73.516 1052.01 71.0773 1046.92 71.0773C1042.64 71.0773 1038.47 73.0919 1035.89 75.7073L1030.66 69.5576C1035.22 65.3517 1041.61 63.125 1047.76 63.125C1062.25 63.125 1065.79 72.0669 1065.79 80.1253V104.724H1056.35V99.5996H1056.39L1056.42 99.6349ZM1056.28 86.3811H1053.98C1047.55 86.3811 1038.54 87.1586 1038.54 93.0964C1038.54 96.9488 1042.18 98.1505 1045.61 98.1505C1052.54 98.1505 1056.25 94.192 1056.25 87.7948V86.3811H1056.28Z" fill="black"/>
<path d="M1086.89 83.3084L1072.3 64.3643H1084.42L1093.18 76.9466L1102.2 64.3643H1113.82L1099.33 83.3084L1115.84 104.797H1103.54L1093.01 90.059L1082.37 104.797H1070.42L1086.86 83.3084H1086.82H1086.89Z" fill="black"/>
<path d="M738.74 114.317C763.472 114.317 783.521 94.2677 783.521 69.5362C783.521 44.8047 763.472 24.7559 738.74 24.7559C714.009 24.7559 693.96 44.8047 693.96 69.5362C693.96 94.2677 714.009 114.317 738.74 114.317Z" fill="#D52B1E"/>
<path d="M728.815 86.2236C723.584 82.5125 718.671 78.554 713.935 74.3128C712.203 78.0239 710.719 81.9824 709.234 85.9762C716.692 92.4087 726.835 99.6188 733.798 103.825C742.705 80.7807 756.63 65.6183 769.99 54.9798C768.258 51.2688 766.032 48.0172 763.027 45.3311C748.89 56.2169 737.226 70.1069 728.815 86.2236V86.2236Z" fill="white"/>
<path d="M1344.08 69.4142C1340.87 65.4521 1334.72 63.0917 1328.82 63.0917C1316.93 63.0917 1307.15 71.3531 1307.15 84.5041C1307.15 97.9922 1317.1 105.916 1329.07 105.916C1335.06 105.916 1340.62 103.893 1343.99 100.268L1337.67 93.8614C1335.73 96.2219 1332.28 97.4864 1329.16 97.4864C1321.49 97.4864 1317.69 90.8266 1317.69 84.5041C1317.69 78.1815 1321.4 71.5217 1328.82 71.5217C1332.11 71.5217 1335.56 73.2078 1337.17 75.4839L1344.08 69.4142Z" fill="black"/>
<path d="M1349.65 104.736H1359.77V83.0709C1359.77 80.1204 1361.54 72.1962 1370.64 72.1962C1371.57 72.1962 1372.41 72.2805 1373.76 72.6177V63.3446C1373.08 63.176 1372.07 63.0917 1371.31 63.0917C1366 63.0917 1361.7 66.3794 1359.51 71.0159H1359.34V64.2719H1349.65V104.736Z" fill="black"/>
<path d="M1385.6 80.4576C1386.02 74.8095 1390.83 70.6787 1396.81 70.6787C1403.39 70.6787 1406.34 75.231 1406.34 80.4576H1385.6ZM1416.46 85.0099C1416.46 70.4258 1408.19 63.0917 1396.9 63.0917C1384.67 63.0917 1375.49 71.6903 1375.49 84.757C1375.49 97.9079 1384.76 105.916 1397.24 105.916C1404.91 105.916 1410.64 103.219 1414.6 97.8236L1407.86 92.4283C1405.58 95.6318 1402.21 97.655 1397.15 97.655C1391.25 97.655 1386.02 93.4399 1385.6 87.7075H1416.37C1416.46 86.7802 1416.46 85.9372 1416.46 85.0099Z" fill="black"/>
<path d="M1465.34 41.0049H1455.22V69.4142H1454.97C1452.86 66.8009 1448.81 63.0917 1441.39 63.0917C1429.85 63.0917 1421.75 72.3648 1421.75 84.3355C1421.75 96.1376 1429.34 105.916 1441.65 105.916C1447.3 105.916 1452.78 103.303 1455.56 98.6666H1455.73V104.736H1465.34V41.0049ZM1432.04 84.3355C1432.04 78.0129 1435.83 71.3531 1443.67 71.3531C1451.09 71.3531 1455.56 78.1815 1455.56 84.5041C1455.56 90.8266 1451.09 97.4864 1443.67 97.4864C1435.83 97.4864 1432.04 90.658 1432.04 84.3355Z" fill="black"/>
<path d="M1475.74 104.736H1485.85V64.2719H1475.74V104.736ZM1474.31 50.5309C1474.31 53.7343 1477 56.6005 1480.71 56.6005C1484.42 56.6005 1487.29 53.9872 1487.29 50.5309C1487.29 47.0745 1484.42 44.4612 1480.71 44.4612C1477 44.4612 1474.31 47.3274 1474.31 50.5309Z" fill="black"/>
<path d="M1500.42 72.3648V91.2481C1500.42 99.0038 1502.86 105.579 1513.57 105.579C1515.85 105.579 1518.54 105.158 1520.31 104.483L1519.98 96.5591C1518.8 97.1492 1517.03 97.4021 1515.68 97.4021C1511.21 97.4021 1510.37 94.7887 1510.37 91.1638V72.3648H1520.48V64.2719H1510.37V52.5541H1500.42V64.2719H1493.34V72.3648H1500.42Z" fill="black"/>
<path d="M1527.97 104.736H1538.09V83.9983H1538.34L1554.36 104.736H1567.76L1549.13 82.5651L1566.67 64.2719H1553.68L1538.34 81.3006H1538.09V41.0049H1527.97V104.736Z" fill="black"/>
<path d="M1597.18 104.736H1606.62V80.1204C1606.62 72.0276 1603.08 63.0917 1588.58 63.0917C1582.42 63.0917 1576.02 65.2835 1571.46 69.4985L1576.69 75.6525C1579.3 73.0392 1583.44 71.0159 1587.73 71.0159C1592.79 71.0159 1597.01 73.4607 1597.01 78.4344V79.446C1584.36 79.446 1569.19 81.132 1569.19 93.187C1569.19 102.629 1577.87 105.748 1584.36 105.748C1590.1 105.748 1594.9 103.135 1596.92 99.5939H1597.18V104.736ZM1597.01 87.7075C1597.01 94.1143 1593.3 98.0765 1586.39 98.0765C1582.93 98.0765 1579.3 96.8963 1579.3 93.0184C1579.3 87.0331 1588.32 86.2744 1594.73 86.2744H1597.01V87.7075Z" fill="black"/>
<path d="M1615.32 104.736H1625.44V83.0709C1625.44 80.1204 1627.21 72.1962 1636.31 72.1962C1637.24 72.1962 1638.08 72.2805 1639.43 72.6177V63.3446C1638.76 63.176 1637.74 63.0917 1636.98 63.0917C1631.67 63.0917 1627.37 66.3794 1625.18 71.0159H1625.01V64.2719H1615.32V104.736Z" fill="black"/>
<path d="M1695.36 63.0917C1689.29 63.0917 1684.74 65.8736 1682.04 70.763C1679.76 66.2108 1675.63 63.0917 1669.39 63.0917C1662.9 63.0917 1658.6 66.8009 1656.83 70.763H1656.67V64.2719H1647.05V104.736H1657.17V82.4808C1657.17 77.0856 1659.95 71.5217 1666.02 71.5217C1671.16 71.5217 1673.53 75.3153 1673.53 80.289V104.736H1683.64V82.6494C1683.64 77.4228 1686.25 71.5217 1692.58 71.5217C1699.07 71.5217 1700.16 77.5071 1700.16 82.3122V104.736H1710.28V79.446C1710.28 71.1845 1705.9 63.0917 1695.36 63.0917Z" fill="black"/>
<path d="M1744.09 104.736H1753.53V80.1204C1753.53 72.0276 1749.99 63.0917 1735.49 63.0917C1729.34 63.0917 1722.93 65.2835 1718.38 69.4985L1723.61 75.6525C1726.22 73.0392 1730.35 71.0159 1734.65 71.0159C1739.71 71.0159 1743.92 73.4607 1743.92 78.4344V79.446C1731.28 79.446 1716.1 81.132 1716.1 93.187C1716.1 102.629 1724.79 105.748 1731.28 105.748C1737.01 105.748 1741.81 103.135 1743.84 99.5939H1744.09V104.736ZM1743.92 87.7075C1743.92 94.1143 1740.21 98.0765 1733.3 98.0765C1729.84 98.0765 1726.22 96.8963 1726.22 93.0184C1726.22 87.0331 1735.24 86.2744 1741.65 86.2744H1743.92V87.7075Z" fill="black"/>
<path d="M1250.6 114.314C1275.33 114.314 1295.38 94.2655 1295.38 69.5348C1295.38 44.8041 1275.33 24.7559 1250.6 24.7559C1225.87 24.7559 1205.82 44.8041 1205.82 69.5348C1205.82 94.2655 1225.87 114.314 1250.6 114.314Z" fill="#008600"/>
<path d="M1228.02 74.0214C1228.02 66.3168 1231.73 62.3584 1237.71 62.3584C1242.16 62.3584 1244.92 64.0902 1245.91 64.585C1246.65 63.8428 1247.14 62.6058 1247.14 61.3688C1247.14 59.1422 1244.67 56.9157 1237.46 56.9157C1229.01 56.9157 1221.84 62.8532 1221.84 74.0214C1221.84 85.1897 1228.3 91.1272 1236.72 91.1272C1241.91 91.1272 1245.91 89.3954 1247.14 88.9006V82.7157C1245.91 83.7053 1241.7 85.6845 1237.71 85.6845C1232.26 85.6845 1228.02 81.7261 1228.02 74.0214ZM1269.2 73.774C1272.91 69.3209 1276.41 64.0902 1278.88 57.4105L1273.44 55.4313C1269.97 64.8677 1264.74 71.3001 1258.56 76.5308V44.0156H1252.62V90.4204H1258.56V83.4579C1260.78 81.7261 1262.76 79.9943 1265.03 78.0152L1270.47 87.4516C1271.71 89.6782 1273.68 90.9151 1276.41 90.9151C1277.89 90.9151 1278.88 90.4204 1279.13 90.173L1269.2 73.8094V73.774Z" fill="white"/>
</svg>
